<svg width="20" height="20" viewBox="6 2 20 20" fill="none" xmlns="http://www.w3.org/2000/svg">
    <g>
        <path fill-rule="evenodd" clip-rule="evenodd"
            d="M15.9427 3.14262C11.9638 3.1291 8.72726 6.34369 8.71375 10.3226V10.3471C8.77958 12.2634 9.44125 14.1115 10.6066 15.6342C11.9142 17.3803 13.5188 18.8827 15.3471 20.0727C15.675 20.3563 16.1614 20.3563 16.4893 20.0727C17.7157 19.281 18.8465 18.3501 19.859 17.2986C21.6296 15.4302 23.0737 13.0396 23.1227 10.4531V10.3716C23.1362 6.39264 19.9216 3.15614 15.9427 3.14262ZM15.9173 12.7704C17.1925 12.7704 18.2263 11.7366 18.2263 10.4614C18.2263 9.18613 17.1925 8.15234 15.9173 8.15234C14.6421 8.15234 13.6083 9.18613 13.6083 10.4614C13.6083 11.7366 14.6421 12.7704 15.9173 12.7704Z"
            fill="#F9A01B" />
    </g>
</svg>