<svg width="43" height="32" viewBox="0 0 43 32" fill="none" xmlns="http://www.w3.org/2000/svg">
<g clip-path="url(#clip0_2627_918999)">
<path d="M41.9033 22.2625C40.8575 21.5672 39.7025 21.3299 38.458 21.4421C38.2743 21.459 38.0091 21.6358 37.8979 21.2554C37.2215 18.9463 36.5283 16.6421 35.839 14.337C35.7596 14.0728 35.8291 13.9655 36.1181 14.0251C36.4896 14.1026 36.863 14.1671 37.2374 14.2327C37.4589 14.2714 37.6595 14.2098 37.6943 13.9705C37.8462 12.9247 37.9803 11.8759 38.1164 10.8271C38.1491 10.5728 38.029 10.4537 37.7697 10.4904C36.6256 10.6523 35.4805 10.8122 34.3364 10.979C34.1089 11.0128 33.8964 11.13 33.9053 11.3813C33.9162 11.7001 33.7325 11.6335 33.5587 11.6077C32.791 11.4955 32.0272 11.3396 31.2565 11.277C30.7838 11.2393 30.608 11.0287 30.5097 10.6036C30.2495 9.47935 29.9505 8.36501 29.6784 7.24372C29.5016 6.51473 29.0408 6.07575 28.3386 5.86123C27.2987 5.5444 26.0473 5.96452 25.3412 6.99841C23.7243 9.36315 22.3508 11.857 21.6218 14.6558C21.3496 15.7026 21.1351 16.7563 22.2246 17.6184C21.9674 17.6184 21.8194 17.6184 21.6714 17.6184C19.5043 17.6184 17.3372 17.6184 15.1691 17.6184C14.902 17.6184 14.6189 17.5965 14.4679 17.8736C14.1432 18.4695 14.6348 19.28 15.3112 19.28C18.6363 19.28 21.9614 19.28 25.2876 19.28C25.4981 19.28 25.7107 19.3118 25.9033 19.1618C26.1129 18.9999 25.9689 18.7735 26.0036 18.5579C26.7227 18.7804 27.3901 19.0158 28.0744 19.1886C28.5233 19.3018 28.6256 19.4677 28.4786 19.9285C28.0178 21.3716 27.6026 22.8296 27.1865 24.2865C26.7475 25.821 26.7555 25.823 25.1604 25.6323C23.9557 25.4883 23.3866 24.7345 23.5833 23.5357C23.7899 22.2793 24.4374 21.2286 25.1366 20.2006C25.2081 20.0954 25.3402 20.002 25.2747 19.855C25.2051 19.7001 25.0462 19.7527 24.9221 19.7527C21.7618 19.7497 18.6025 19.7507 15.4423 19.7487C15.2545 19.7487 15.045 19.7527 14.9625 19.9365C14.8444 20.2026 14.6348 20.1649 14.4252 20.1649C12.8531 20.1649 11.2819 20.1689 9.70966 20.1629C9.32729 20.1609 8.91016 20.1589 8.88831 20.6496C8.86448 21.1988 9.33226 21.0667 9.65603 21.0677C11.1706 21.0756 12.6862 21.0707 14.2008 21.0707C13.9038 21.2921 13.5612 21.4083 13.2781 21.61C12.8332 21.9268 12.3555 21.9794 11.8321 21.9754C9.64809 21.9605 7.4641 21.9695 5.28012 21.9695C5.14803 21.9695 5.01196 21.9536 4.88384 21.9794C4.59483 22.038 4.39322 22.2198 4.39917 22.5207C4.40513 22.8524 4.66336 22.8872 4.9335 22.8852C5.69427 22.8802 6.45603 22.8852 7.2168 22.8852C8.58142 22.8852 9.94604 22.8852 11.3702 22.8852C10.9193 23.4672 10.5032 23.8217 9.72258 23.8059C6.84536 23.7453 3.96615 23.782 1.08695 23.784C0.585394 23.784 0.253675 24.0025 0.297375 24.3263C0.361931 24.808 0.757213 24.7116 1.07404 24.7116C3.82016 24.7156 6.56628 24.7126 9.31339 24.7166C9.4713 24.7166 9.63716 24.6709 9.79011 24.7573C9.5597 25.3234 9.16905 25.6065 8.61817 25.6065C7.82363 25.6065 7.03009 25.6134 6.23555 25.6045C5.86808 25.6005 5.53536 25.672 5.5155 26.0971C5.49365 26.5718 5.88099 26.5152 6.19284 26.5162C7.11749 26.5182 8.04312 26.5162 8.97273 26.5162C8.8509 27.2114 9.13594 27.559 9.82785 27.559C17.0413 27.562 24.2547 27.565 31.4681 27.568C31.919 27.568 32.1464 27.7872 32.1504 28.2255C32.1553 28.7965 32.1871 28.8184 32.6946 28.5473C35.7477 26.9165 38.7997 25.2847 41.8507 23.6529C42.9819 23.0481 42.9869 22.9825 41.9033 22.2615V22.2625ZM34.1188 20.8263C33.7851 22.3697 33.1992 23.7959 31.8624 24.7742C31.0261 25.386 30.0786 25.6532 29.009 25.6522C29.7539 23.8217 30.4809 22.039 31.2059 20.2553C31.3737 19.8431 31.5505 19.4349 31.7015 19.0168C32.0729 17.9918 31.6995 17.1208 30.6954 16.7166C29.2761 16.1435 27.8519 15.5824 26.4198 15.0401C26.1109 14.9229 26.0086 14.8365 26.1616 14.4929C26.7445 13.1799 27.4537 11.9434 28.3088 10.6821C28.5293 11.1856 28.7349 11.6067 28.9017 12.0437C29.1331 12.6496 29.5761 12.8998 30.1998 12.9207C31.4234 12.9614 32.639 13.0955 33.8557 13.2226C34.0612 13.2445 34.1923 13.2792 34.2192 13.5196C34.4883 15.9598 34.6423 18.402 34.1179 20.8263H34.1188Z" fill="#A9CB37"/>
<path d="M4.85 17.1925C9.63212 17.1885 14.4133 17.1915 19.1954 17.1885C19.7585 17.1885 20.1379 16.8677 20.2303 16.3235C20.6921 13.6061 21.1509 10.8878 21.6058 8.16952C21.6972 7.62229 21.4409 7.28957 20.8858 7.28759C18.1555 7.27865 15.4253 7.27964 12.6961 7.28759C12.1588 7.28957 11.7913 7.6203 11.7009 8.14171C11.4655 9.50733 11.2182 10.8719 11.0196 12.2435C10.9669 12.603 10.8289 12.6676 10.517 12.6527C10.0542 12.6318 9.59041 12.6368 9.12759 12.6497C8.7909 12.6597 8.53963 12.8295 8.53566 13.184C8.53268 13.5515 8.82765 13.5634 9.10673 13.5624C9.55366 13.5605 10.0006 13.5585 10.4465 13.5644C10.5538 13.5654 10.6889 13.5118 10.7604 13.6439C10.9024 13.9041 10.5746 14.4553 10.2757 14.4563C9.29941 14.4593 8.32312 14.4593 7.34683 14.4563C6.98135 14.4553 6.70127 14.6122 6.69333 14.9817C6.68538 15.3939 7.03299 15.3958 7.34286 15.3948C8.36781 15.3929 9.39177 15.3948 10.4664 15.3948C10.3763 15.9848 10.0522 16.2798 9.49407 16.2798C7.97154 16.2798 6.45 16.2837 4.92747 16.2798C4.57986 16.2798 4.33156 16.4188 4.31269 16.7764C4.29482 17.125 4.54708 17.1945 4.84901 17.1935L4.85 17.1925Z" fill="white"/>
<path d="M41.2408 24.4916C40.6489 24.8432 40.0311 25.151 39.3766 25.5026C39.911 25.7658 40.3033 26.1204 40.483 26.6726C40.9935 28.2497 39.3727 30.1556 37.6942 29.9471C36.4875 29.7971 35.8002 28.8854 35.9879 27.6846C36.0048 27.5734 36.0137 27.4602 36.0316 27.2993C35.398 27.6389 34.813 27.9717 34.2101 28.2686C33.9609 28.3918 33.8953 28.5348 33.9132 28.8059C34.0244 30.5042 35.4754 31.8897 37.2642 31.9821C39.5981 32.1032 41.8844 30.4059 42.4862 28.0958C42.818 26.8255 42.6531 25.6476 41.8089 24.5988C41.6361 24.3843 41.5 24.3366 41.2408 24.4906V24.4916Z" fill="white"/>
<path d="M27.4119 4.73831C28.5322 5.29051 29.6634 5.83378 30.7341 6.47338C31.332 6.83092 31.768 6.67996 32.2546 6.35122C32.497 6.18735 32.644 6.07015 32.2745 5.86159C31.917 5.66096 31.6061 5.37791 31.2545 5.16537C30.5374 4.73235 30.2921 4.11857 30.4759 3.3141C30.5196 3.12142 30.5454 2.92478 30.5821 2.73111C30.6834 2.18983 30.752 2.14812 31.2605 2.32788C32.0778 2.6159 32.8932 2.9069 33.7484 3.20982C33.7414 3.05091 33.7484 2.93669 33.7295 2.82645C33.4296 1.03278 31.5485 -0.286149 29.7787 0.0535163C27.832 0.426949 26.5429 2.23651 26.9074 4.07586C26.969 4.38573 27.107 4.58735 27.4109 4.73732L27.4119 4.73831Z" fill="#A9CB37"/>
<path d="M18.5328 28.0186C18.0879 28.0464 17.64 28.0384 17.194 28.0186C16.9626 28.0087 16.8514 28.0851 16.7531 28.2977C16.3975 29.0704 15.8086 29.5967 14.9912 29.854C13.851 30.2125 12.6652 29.701 12.4705 28.6294C12.3533 27.9818 12.0434 27.9868 11.5866 28.0226C11.5042 28.0285 11.4217 28.0226 11.3383 28.0226C10.1266 28.0226 10.1177 28.0335 10.3938 29.267C10.4156 29.3633 10.4375 29.4597 10.4673 29.553C10.9966 31.2017 12.5251 32.1492 14.3784 31.9803C16.3012 31.8055 18.214 30.2582 18.805 28.4129C18.8963 28.1288 18.8894 27.9938 18.5308 28.0166L18.5328 28.0186Z" fill="white"/>
</g>
<defs>
<clipPath id="clip0_2627_918999">
<rect width="42.4144" height="32" fill="white" transform="translate(0.292786)"/>
</clipPath>
</defs>
</svg>
